<svg width="500" height="400" viewBox="0 0 500 400" xmlns="http://www.w3.org/2000/svg">
  <!-- Monitor/Screen -->
  <rect x="100" y="50" width="240" height="180" rx="5" fill="#333" />
  <rect x="110" y="60" width="220" height="160" rx="2" fill="#1E1E1E" />
  
  <!-- Code on Screen -->
  <rect x="120" y="70" width="180" height="10" rx="2" fill="#4CAF50" opacity="0.7" />
  <rect x="120" y="90" width="200" height="10" rx="2" fill="#FFFFFF" opacity="0.5" />
  <rect x="120" y="110" width="160" height="10" rx="2" fill="#FFFFFF" opacity="0.5" />
  <rect x="120" y="130" width="190" height="10" rx="2" fill="#FFFFFF" opacity="0.5" />
  <rect x="120" y="150" width="140" height="10" rx="2" fill="#4CAF50" opacity="0.7" />
  <rect x="120" y="170" width="180" height="10" rx="2" fill="#FFFFFF" opacity="0.5" />
  <rect x="120" y="190" width="160" height="10" rx="2" fill="#FFFFFF" opacity="0.5" />
  
  <!-- Monitor Stand -->
  <rect x="160" y="230" width="120" height="10" rx="2" fill="#555" />
  <rect x="200" y="240" width="40" height="20" rx="2" fill="#444" />
  
  <!-- Person -->
  <circle cx="350" cy="150" r="30" fill="#4CAF50" />
  <rect x="335" y="180" width="30" height="80" rx="5" fill="#4CAF50" />
  <rect x="320" y="200" width="15" height="40" rx="5" fill="#4CAF50" />
  <rect x="365" y="200" width="15" height="40" rx="5" fill="#4CAF50" />
  
  <!-- Floating Elements -->
  <circle cx="80" y="100" r="15" fill="#EEEEEE" opacity="0.5" />
  <rect x="400" y="80" width="30" height="30" rx="5" fill="#EEEEEE" opacity="0.5" />
  <polygon points="60,200 80,230 40,230" fill="#EEEEEE" opacity="0.5" />
  
  <!-- Gear Icon -->
  <circle cx="420" cy="300" r="25" fill="#EEEEEE" opacity="0.7" />
  <circle cx="420" cy="300" r="15" fill="#DDDDDD" />
  <circle cx="420" cy="300" r="5" fill="#CCCCCC" />
</svg>